<?xml version="1.0" encoding="utf-8"?>
<!-- Generator: Adobe Illustrator 23.0.3, SVG Export Plug-In . SVG Version: 6.00 Build 0)  -->
<svg version="1.1" id="Layer_1" xmlns="http://www.w3.org/2000/svg" xmlns:xlink="http://www.w3.org/1999/xlink" x="0px" y="0px"
	 viewBox="0 0 215 122" style="enable-background:new 0 0 215 122;" xml:space="preserve">
<style type="text/css">
	.st0{fill:none;stroke:#605FA4;stroke-miterlimit:10;}
	.st1{fill:none;stroke:#D989BC;stroke-miterlimit:10;}
	.st2{fill:#666666;}
	.st3{fill:#F3B73B;}
	.st4{opacity:0.57;}
	.st5{fill:#DD4921;}
</style>
<g>
	<path class="st0" d="M213.5,81.5c0,1.1-0.9,2-2,2H3.5c-1.1,0-2-0.9-2-2v-78c0-1.1,0.9-2,2-2h208c1.1,0,2,0.9,2,2V81.5z"/>
</g>
<g>
	<path class="st1" d="M213.5,118.5c0,1.1-0.9,2-2,2H3.5c-1.1,0-2-0.9-2-2v-31c0-1.1,0.9-2,2-2h208c1.1,0,2,0.9,2,2V118.5z"/>
</g>
<g>
	<path class="st2" d="M16,14c0,1.1-0.9,2-2,2H6c-1.1,0-2-0.9-2-2V6c0-1.1,0.9-2,2-2h8c1.1,0,2,0.9,2,2V14z"/>
</g>
<g>
	<path class="st2" d="M29,14c0,1.1-0.9,2-2,2h-8c-1.1,0-2-0.9-2-2V6c0-1.1,0.9-2,2-2h8c1.1,0,2,0.9,2,2V14z"/>
</g>
<g>
	<path class="st2" d="M42,14c0,1.1-0.9,2-2,2h-8c-1.1,0-2-0.9-2-2V6c0-1.1,0.9-2,2-2h8c1.1,0,2,0.9,2,2V14z"/>
</g>
<g>
	<path class="st2" d="M55,14c0,1.1-0.9,2-2,2h-8c-1.1,0-2-0.9-2-2V6c0-1.1,0.9-2,2-2h8c1.1,0,2,0.9,2,2V14z"/>
</g>
<g>
	<path class="st2" d="M68,14c0,1.1-0.9,2-2,2h-8c-1.1,0-2-0.9-2-2V6c0-1.1,0.9-2,2-2h8c1.1,0,2,0.9,2,2V14z"/>
</g>
<g>
	<path class="st2" d="M81,14c0,1.1-0.9,2-2,2h-8c-1.1,0-2-0.9-2-2V6c0-1.1,0.9-2,2-2h8c1.1,0,2,0.9,2,2V14z"/>
</g>
<g>
	<path class="st2" d="M94,14c0,1.1-0.9,2-2,2h-8c-1.1,0-2-0.9-2-2V6c0-1.1,0.9-2,2-2h8c1.1,0,2,0.9,2,2V14z"/>
</g>
<g>
	<path class="st2" d="M107,14c0,1.1-0.9,2-2,2h-8c-1.1,0-2-0.9-2-2V6c0-1.1,0.9-2,2-2h8c1.1,0,2,0.9,2,2V14z"/>
</g>
<g>
	<path class="st2" d="M120,14c0,1.1-0.9,2-2,2h-8c-1.1,0-2-0.9-2-2V6c0-1.1,0.9-2,2-2h8c1.1,0,2,0.9,2,2V14z"/>
</g>
<g>
	<path class="st2" d="M133,14c0,1.1-0.9,2-2,2h-8c-1.1,0-2-0.9-2-2V6c0-1.1,0.9-2,2-2h8c1.1,0,2,0.9,2,2V14z"/>
</g>
<g>
	<path class="st2" d="M146,14c0,1.1-0.9,2-2,2h-8c-1.1,0-2-0.9-2-2V6c0-1.1,0.9-2,2-2h8c1.1,0,2,0.9,2,2V14z"/>
</g>
<g>
	<path class="st2" d="M159,14c0,1.1-0.9,2-2,2h-8c-1.1,0-2-0.9-2-2V6c0-1.1,0.9-2,2-2h8c1.1,0,2,0.9,2,2V14z"/>
</g>
<g>
	<path class="st2" d="M172,14c0,1.1-0.9,2-2,2h-8c-1.1,0-2-0.9-2-2V6c0-1.1,0.9-2,2-2h8c1.1,0,2,0.9,2,2V14z"/>
</g>
<g>
	<path class="st2" d="M185,14c0,1.1-0.9,2-2,2h-8c-1.1,0-2-0.9-2-2V6c0-1.1,0.9-2,2-2h8c1.1,0,2,0.9,2,2V14z"/>
</g>
<g>
	<path class="st2" d="M198,14c0,1.1-0.9,2-2,2h-8c-1.1,0-2-0.9-2-2V6c0-1.1,0.9-2,2-2h8c1.1,0,2,0.9,2,2V14z"/>
</g>
<g>
	<path class="st2" d="M211,14c0,1.1-0.9,2-2,2h-8c-1.1,0-2-0.9-2-2V6c0-1.1,0.9-2,2-2h8c1.1,0,2,0.9,2,2V14z"/>
</g>
<g>
	<path class="st2" d="M16,27c0,1.1-0.9,2-2,2H6c-1.1,0-2-0.9-2-2v-8c0-1.1,0.9-2,2-2h8c1.1,0,2,0.9,2,2V27z"/>
</g>
<g>
	<path class="st2" d="M29,27c0,1.1-0.9,2-2,2h-8c-1.1,0-2-0.9-2-2v-8c0-1.1,0.9-2,2-2h8c1.1,0,2,0.9,2,2V27z"/>
</g>
<g>
	<path class="st2" d="M42,27c0,1.1-0.9,2-2,2h-8c-1.1,0-2-0.9-2-2v-8c0-1.1,0.9-2,2-2h8c1.1,0,2,0.9,2,2V27z"/>
</g>
<g>
	<path class="st2" d="M55,27c0,1.1-0.9,2-2,2h-8c-1.1,0-2-0.9-2-2v-8c0-1.1,0.9-2,2-2h8c1.1,0,2,0.9,2,2V27z"/>
</g>
<g>
	<path class="st2" d="M68,27c0,1.1-0.9,2-2,2h-8c-1.1,0-2-0.9-2-2v-8c0-1.1,0.9-2,2-2h8c1.1,0,2,0.9,2,2V27z"/>
</g>
<g>
	<path class="st2" d="M81,27c0,1.1-0.9,2-2,2h-8c-1.1,0-2-0.9-2-2v-8c0-1.1,0.9-2,2-2h8c1.1,0,2,0.9,2,2V27z"/>
</g>
<g>
	<path class="st2" d="M94,27c0,1.1-0.9,2-2,2h-8c-1.1,0-2-0.9-2-2v-8c0-1.1,0.9-2,2-2h8c1.1,0,2,0.9,2,2V27z"/>
</g>
<g>
	<path class="st2" d="M107,27c0,1.1-0.9,2-2,2h-8c-1.1,0-2-0.9-2-2v-8c0-1.1,0.9-2,2-2h8c1.1,0,2,0.9,2,2V27z"/>
</g>
<g>
	<path class="st2" d="M120,27c0,1.1-0.9,2-2,2h-8c-1.1,0-2-0.9-2-2v-8c0-1.1,0.9-2,2-2h8c1.1,0,2,0.9,2,2V27z"/>
</g>
<g>
	<path class="st2" d="M133,27c0,1.1-0.9,2-2,2h-8c-1.1,0-2-0.9-2-2v-8c0-1.1,0.9-2,2-2h8c1.1,0,2,0.9,2,2V27z"/>
</g>
<g>
	<path class="st2" d="M146,27c0,1.1-0.9,2-2,2h-8c-1.1,0-2-0.9-2-2v-8c0-1.1,0.9-2,2-2h8c1.1,0,2,0.9,2,2V27z"/>
</g>
<g>
	<path class="st2" d="M159,27c0,1.1-0.9,2-2,2h-8c-1.1,0-2-0.9-2-2v-8c0-1.1,0.9-2,2-2h8c1.1,0,2,0.9,2,2V27z"/>
</g>
<g>
	<path class="st2" d="M172,27c0,1.1-0.9,2-2,2h-8c-1.1,0-2-0.9-2-2v-8c0-1.1,0.9-2,2-2h8c1.1,0,2,0.9,2,2V27z"/>
</g>
<g>
	<path class="st2" d="M185,27c0,1.1-0.9,2-2,2h-8c-1.1,0-2-0.9-2-2v-8c0-1.1,0.9-2,2-2h8c1.1,0,2,0.9,2,2V27z"/>
</g>
<g>
	<path class="st2" d="M198,27c0,1.1-0.9,2-2,2h-8c-1.1,0-2-0.9-2-2v-8c0-1.1,0.9-2,2-2h8c1.1,0,2,0.9,2,2V27z"/>
</g>
<g>
	<path class="st2" d="M211,27c0,1.1-0.9,2-2,2h-8c-1.1,0-2-0.9-2-2v-8c0-1.1,0.9-2,2-2h8c1.1,0,2,0.9,2,2V27z"/>
</g>
<g>
	<path class="st2" d="M16,40c0,1.1-0.9,2-2,2H6c-1.1,0-2-0.9-2-2v-8c0-1.1,0.9-2,2-2h8c1.1,0,2,0.9,2,2V40z"/>
</g>
<g>
	<path class="st2" d="M29,40c0,1.1-0.9,2-2,2h-8c-1.1,0-2-0.9-2-2v-8c0-1.1,0.9-2,2-2h8c1.1,0,2,0.9,2,2V40z"/>
</g>
<g>
	<path class="st2" d="M42,40c0,1.1-0.9,2-2,2h-8c-1.1,0-2-0.9-2-2v-8c0-1.1,0.9-2,2-2h8c1.1,0,2,0.9,2,2V40z"/>
</g>
<g>
	<path class="st2" d="M55,40c0,1.1-0.9,2-2,2h-8c-1.1,0-2-0.9-2-2v-8c0-1.1,0.9-2,2-2h8c1.1,0,2,0.9,2,2V40z"/>
</g>
<g>
	<path class="st2" d="M68,40c0,1.1-0.9,2-2,2h-8c-1.1,0-2-0.9-2-2v-8c0-1.1,0.9-2,2-2h8c1.1,0,2,0.9,2,2V40z"/>
</g>
<g>
	<path class="st2" d="M81,40c0,1.1-0.9,2-2,2h-8c-1.1,0-2-0.9-2-2v-8c0-1.1,0.9-2,2-2h8c1.1,0,2,0.9,2,2V40z"/>
</g>
<g>
	<path class="st2" d="M94,40c0,1.1-0.9,2-2,2h-8c-1.1,0-2-0.9-2-2v-8c0-1.1,0.9-2,2-2h8c1.1,0,2,0.9,2,2V40z"/>
</g>
<g>
	<path class="st2" d="M107,40c0,1.1-0.9,2-2,2h-8c-1.1,0-2-0.9-2-2v-8c0-1.1,0.9-2,2-2h8c1.1,0,2,0.9,2,2V40z"/>
</g>
<g>
	<path class="st2" d="M120,40c0,1.1-0.9,2-2,2h-8c-1.1,0-2-0.9-2-2v-8c0-1.1,0.9-2,2-2h8c1.1,0,2,0.9,2,2V40z"/>
</g>
<g>
	<path class="st2" d="M133,40c0,1.1-0.9,2-2,2h-8c-1.1,0-2-0.9-2-2v-8c0-1.1,0.9-2,2-2h8c1.1,0,2,0.9,2,2V40z"/>
</g>
<g>
	<path class="st2" d="M146,40c0,1.1-0.9,2-2,2h-8c-1.1,0-2-0.9-2-2v-8c0-1.1,0.9-2,2-2h8c1.1,0,2,0.9,2,2V40z"/>
</g>
<g>
	<path class="st2" d="M159,40c0,1.1-0.9,2-2,2h-8c-1.1,0-2-0.9-2-2v-8c0-1.1,0.9-2,2-2h8c1.1,0,2,0.9,2,2V40z"/>
</g>
<g>
	<path class="st2" d="M172,40c0,1.1-0.9,2-2,2h-8c-1.1,0-2-0.9-2-2v-8c0-1.1,0.9-2,2-2h8c1.1,0,2,0.9,2,2V40z"/>
</g>
<g>
	<path class="st2" d="M185,40c0,1.1-0.9,2-2,2h-8c-1.1,0-2-0.9-2-2v-8c0-1.1,0.9-2,2-2h8c1.1,0,2,0.9,2,2V40z"/>
</g>
<g>
	<path class="st2" d="M198,40c0,1.1-0.9,2-2,2h-8c-1.1,0-2-0.9-2-2v-8c0-1.1,0.9-2,2-2h8c1.1,0,2,0.9,2,2V40z"/>
</g>
<g>
	<path class="st2" d="M211,40c0,1.1-0.9,2-2,2h-8c-1.1,0-2-0.9-2-2v-8c0-1.1,0.9-2,2-2h8c1.1,0,2,0.9,2,2V40z"/>
</g>
<g>
	<path class="st2" d="M16,53c0,1.1-0.9,2-2,2H6c-1.1,0-2-0.9-2-2v-8c0-1.1,0.9-2,2-2h8c1.1,0,2,0.9,2,2V53z"/>
</g>
<g>
	<path class="st2" d="M29,53c0,1.1-0.9,2-2,2h-8c-1.1,0-2-0.9-2-2v-8c0-1.1,0.9-2,2-2h8c1.1,0,2,0.9,2,2V53z"/>
</g>
<g>
	<path class="st2" d="M42,53c0,1.1-0.9,2-2,2h-8c-1.1,0-2-0.9-2-2v-8c0-1.1,0.9-2,2-2h8c1.1,0,2,0.9,2,2V53z"/>
</g>
<g>
	<path class="st2" d="M55,53c0,1.1-0.9,2-2,2h-8c-1.1,0-2-0.9-2-2v-8c0-1.1,0.9-2,2-2h8c1.1,0,2,0.9,2,2V53z"/>
</g>
<g>
	<path class="st2" d="M68,53c0,1.1-0.9,2-2,2h-8c-1.1,0-2-0.9-2-2v-8c0-1.1,0.9-2,2-2h8c1.1,0,2,0.9,2,2V53z"/>
</g>
<g>
	<path class="st2" d="M81,53c0,1.1-0.9,2-2,2h-8c-1.1,0-2-0.9-2-2v-8c0-1.1,0.9-2,2-2h8c1.1,0,2,0.9,2,2V53z"/>
</g>
<g>
	<path class="st2" d="M94,53c0,1.1-0.9,2-2,2h-8c-1.1,0-2-0.9-2-2v-8c0-1.1,0.9-2,2-2h8c1.1,0,2,0.9,2,2V53z"/>
</g>
<g>
	<path class="st2" d="M107,53c0,1.1-0.9,2-2,2h-8c-1.1,0-2-0.9-2-2v-8c0-1.1,0.9-2,2-2h8c1.1,0,2,0.9,2,2V53z"/>
</g>
<g>
	<path class="st2" d="M120,53c0,1.1-0.9,2-2,2h-8c-1.1,0-2-0.9-2-2v-8c0-1.1,0.9-2,2-2h8c1.1,0,2,0.9,2,2V53z"/>
</g>
<g>
	<path class="st2" d="M133,53c0,1.1-0.9,2-2,2h-8c-1.1,0-2-0.9-2-2v-8c0-1.1,0.9-2,2-2h8c1.1,0,2,0.9,2,2V53z"/>
</g>
<g>
	<path class="st2" d="M146,53c0,1.1-0.9,2-2,2h-8c-1.1,0-2-0.9-2-2v-8c0-1.1,0.9-2,2-2h8c1.1,0,2,0.9,2,2V53z"/>
</g>
<g>
	<path class="st2" d="M159,53c0,1.1-0.9,2-2,2h-8c-1.1,0-2-0.9-2-2v-8c0-1.1,0.9-2,2-2h8c1.1,0,2,0.9,2,2V53z"/>
</g>
<g>
	<path class="st2" d="M172,53c0,1.1-0.9,2-2,2h-8c-1.1,0-2-0.9-2-2v-8c0-1.1,0.9-2,2-2h8c1.1,0,2,0.9,2,2V53z"/>
</g>
<g>
	<path class="st2" d="M185,53c0,1.1-0.9,2-2,2h-8c-1.1,0-2-0.9-2-2v-8c0-1.1,0.9-2,2-2h8c1.1,0,2,0.9,2,2V53z"/>
</g>
<g>
	<path class="st2" d="M198,53c0,1.1-0.9,2-2,2h-8c-1.1,0-2-0.9-2-2v-8c0-1.1,0.9-2,2-2h8c1.1,0,2,0.9,2,2V53z"/>
</g>
<g>
	<path class="st2" d="M211,53c0,1.1-0.9,2-2,2h-8c-1.1,0-2-0.9-2-2v-8c0-1.1,0.9-2,2-2h8c1.1,0,2,0.9,2,2V53z"/>
</g>
<g>
	<path class="st2" d="M16,66c0,1.1-0.9,2-2,2H6c-1.1,0-2-0.9-2-2v-8c0-1.1,0.9-2,2-2h8c1.1,0,2,0.9,2,2V66z"/>
</g>
<g>
	<path class="st2" d="M29,66c0,1.1-0.9,2-2,2h-8c-1.1,0-2-0.9-2-2v-8c0-1.1,0.9-2,2-2h8c1.1,0,2,0.9,2,2V66z"/>
</g>
<g>
	<path class="st2" d="M42,66c0,1.1-0.9,2-2,2h-8c-1.1,0-2-0.9-2-2v-8c0-1.1,0.9-2,2-2h8c1.1,0,2,0.9,2,2V66z"/>
</g>
<g>
	<path class="st2" d="M55,66c0,1.1-0.9,2-2,2h-8c-1.1,0-2-0.9-2-2v-8c0-1.1,0.9-2,2-2h8c1.1,0,2,0.9,2,2V66z"/>
</g>
<g>
	<path class="st2" d="M68,66c0,1.1-0.9,2-2,2h-8c-1.1,0-2-0.9-2-2v-8c0-1.1,0.9-2,2-2h8c1.1,0,2,0.9,2,2V66z"/>
</g>
<g>
	<path class="st2" d="M81,66c0,1.1-0.9,2-2,2h-8c-1.1,0-2-0.9-2-2v-8c0-1.1,0.9-2,2-2h8c1.1,0,2,0.9,2,2V66z"/>
</g>
<g>
	<path class="st2" d="M94,66c0,1.1-0.9,2-2,2h-8c-1.1,0-2-0.9-2-2v-8c0-1.1,0.9-2,2-2h8c1.1,0,2,0.9,2,2V66z"/>
</g>
<g>
	<path class="st2" d="M107,66c0,1.1-0.9,2-2,2h-8c-1.1,0-2-0.9-2-2v-8c0-1.1,0.9-2,2-2h8c1.1,0,2,0.9,2,2V66z"/>
</g>
<g>
	<path class="st2" d="M120,66c0,1.1-0.9,2-2,2h-8c-1.1,0-2-0.9-2-2v-8c0-1.1,0.9-2,2-2h8c1.1,0,2,0.9,2,2V66z"/>
</g>
<g>
	<path class="st2" d="M133,66c0,1.1-0.9,2-2,2h-8c-1.1,0-2-0.9-2-2v-8c0-1.1,0.9-2,2-2h8c1.1,0,2,0.9,2,2V66z"/>
</g>
<g>
	<path class="st2" d="M146,66c0,1.1-0.9,2-2,2h-8c-1.1,0-2-0.9-2-2v-8c0-1.1,0.9-2,2-2h8c1.1,0,2,0.9,2,2V66z"/>
</g>
<g>
	<path class="st2" d="M159,66c0,1.1-0.9,2-2,2h-8c-1.1,0-2-0.9-2-2v-8c0-1.1,0.9-2,2-2h8c1.1,0,2,0.9,2,2V66z"/>
</g>
<g>
	<path class="st2" d="M172,66c0,1.1-0.9,2-2,2h-8c-1.1,0-2-0.9-2-2v-8c0-1.1,0.9-2,2-2h8c1.1,0,2,0.9,2,2V66z"/>
</g>
<g>
	<path class="st2" d="M185,66c0,1.1-0.9,2-2,2h-8c-1.1,0-2-0.9-2-2v-8c0-1.1,0.9-2,2-2h8c1.1,0,2,0.9,2,2V66z"/>
</g>
<g>
	<path class="st2" d="M198,66c0,1.1-0.9,2-2,2h-8c-1.1,0-2-0.9-2-2v-8c0-1.1,0.9-2,2-2h8c1.1,0,2,0.9,2,2V66z"/>
</g>
<g>
	<path class="st2" d="M211,66c0,1.1-0.9,2-2,2h-8c-1.1,0-2-0.9-2-2v-8c0-1.1,0.9-2,2-2h8c1.1,0,2,0.9,2,2V66z"/>
</g>
<g>
	<path class="st2" d="M16,79c0,1.1-0.9,2-2,2H6c-1.1,0-2-0.9-2-2v-8c0-1.1,0.9-2,2-2h8c1.1,0,2,0.9,2,2V79z"/>
</g>
<g>
	<path class="st2" d="M29,79c0,1.1-0.9,2-2,2h-8c-1.1,0-2-0.9-2-2v-8c0-1.1,0.9-2,2-2h8c1.1,0,2,0.9,2,2V79z"/>
</g>
<g>
	<path class="st2" d="M42,79c0,1.1-0.9,2-2,2h-8c-1.1,0-2-0.9-2-2v-8c0-1.1,0.9-2,2-2h8c1.1,0,2,0.9,2,2V79z"/>
</g>
<g>
	<path class="st2" d="M55,79c0,1.1-0.9,2-2,2h-8c-1.1,0-2-0.9-2-2v-8c0-1.1,0.9-2,2-2h8c1.1,0,2,0.9,2,2V79z"/>
</g>
<g>
	<path class="st2" d="M68,79c0,1.1-0.9,2-2,2h-8c-1.1,0-2-0.9-2-2v-8c0-1.1,0.9-2,2-2h8c1.1,0,2,0.9,2,2V79z"/>
</g>
<g>
	<path class="st2" d="M81,79c0,1.1-0.9,2-2,2h-8c-1.1,0-2-0.9-2-2v-8c0-1.1,0.9-2,2-2h8c1.1,0,2,0.9,2,2V79z"/>
</g>
<g>
	<path class="st2" d="M94,79c0,1.1-0.9,2-2,2h-8c-1.1,0-2-0.9-2-2v-8c0-1.1,0.9-2,2-2h8c1.1,0,2,0.9,2,2V79z"/>
</g>
<g>
	<path class="st2" d="M107,79c0,1.1-0.9,2-2,2h-8c-1.1,0-2-0.9-2-2v-8c0-1.1,0.9-2,2-2h8c1.1,0,2,0.9,2,2V79z"/>
</g>
<g>
	<path class="st2" d="M120,79c0,1.1-0.9,2-2,2h-8c-1.1,0-2-0.9-2-2v-8c0-1.1,0.9-2,2-2h8c1.1,0,2,0.9,2,2V79z"/>
</g>
<g>
	<path class="st2" d="M133,79c0,1.1-0.9,2-2,2h-8c-1.1,0-2-0.9-2-2v-8c0-1.1,0.9-2,2-2h8c1.1,0,2,0.9,2,2V79z"/>
</g>
<g>
	<path class="st2" d="M146,79c0,1.1-0.9,2-2,2h-8c-1.1,0-2-0.9-2-2v-8c0-1.1,0.9-2,2-2h8c1.1,0,2,0.9,2,2V79z"/>
</g>
<g>
	<path class="st2" d="M159,79c0,1.1-0.9,2-2,2h-8c-1.1,0-2-0.9-2-2v-8c0-1.1,0.9-2,2-2h8c1.1,0,2,0.9,2,2V79z"/>
</g>
<g>
	<path class="st2" d="M172,79c0,1.1-0.9,2-2,2h-8c-1.1,0-2-0.9-2-2v-8c0-1.1,0.9-2,2-2h8c1.1,0,2,0.9,2,2V79z"/>
</g>
<g>
	<path class="st2" d="M185,79c0,1.1-0.9,2-2,2h-8c-1.1,0-2-0.9-2-2v-8c0-1.1,0.9-2,2-2h8c1.1,0,2,0.9,2,2V79z"/>
</g>
<g>
	<path class="st2" d="M198,79c0,1.1-0.9,2-2,2h-8c-1.1,0-2-0.9-2-2v-8c0-1.1,0.9-2,2-2h8c1.1,0,2,0.9,2,2V79z"/>
</g>
<g>
	<path class="st2" d="M211,79c0,1.1-0.9,2-2,2h-8c-1.1,0-2-0.9-2-2v-8c0-1.1,0.9-2,2-2h8c1.1,0,2,0.9,2,2V79z"/>
</g>
<g>
	<path class="st3" d="M13.5,11.5c0,1.1-0.9,2-2,2h-3c-1.1,0-2-0.9-2-2v-3c0-1.1,0.9-2,2-2h3c1.1,0,2,0.9,2,2V11.5z"/>
</g>
<g>
	<path class="st3" d="M130.5,50.5c0,1.1-0.9,2-2,2h-3c-1.1,0-2-0.9-2-2v-3c0-1.1,0.9-2,2-2h3c1.1,0,2,0.9,2,2V50.5z"/>
</g>
<g>
	<path class="st3" d="M130.5,63.5c0,1.1-0.9,2-2,2h-3c-1.1,0-2-0.9-2-2v-3c0-1.1,0.9-2,2-2h3c1.1,0,2,0.9,2,2V63.5z"/>
</g>
<g>
	<path class="st3" d="M26.5,76.5c0,1.1-0.9,2-2,2h-3c-1.1,0-2-0.9-2-2v-3c0-1.1,0.9-2,2-2h3c1.1,0,2,0.9,2,2V76.5z"/>
</g>
<g>
	<path class="st3" d="M26.5,11.5c0,1.1-0.9,2-2,2h-3c-1.1,0-2-0.9-2-2v-3c0-1.1,0.9-2,2-2h3c1.1,0,2,0.9,2,2V11.5z"/>
</g>
<g>
	<path class="st3" d="M65.5,24.5c0,1.1-0.9,2-2,2h-3c-1.1,0-2-0.9-2-2v-3c0-1.1,0.9-2,2-2h3c1.1,0,2,0.9,2,2V24.5z"/>
</g>
<g>
	<path class="st3" d="M13.5,76.5c0,1.1-0.9,2-2,2h-3c-1.1,0-2-0.9-2-2v-3c0-1.1,0.9-2,2-2h3c1.1,0,2,0.9,2,2V76.5z"/>
</g>
<g>
	<path class="st3" d="M156.5,76.5c0,1.1-0.9,2-2,2h-3c-1.1,0-2-0.9-2-2v-3c0-1.1,0.9-2,2-2h3c1.1,0,2,0.9,2,2V76.5z"/>
</g>
<g>
	<path class="st3" d="M169.5,76.5c0,1.1-0.9,2-2,2h-3c-1.1,0-2-0.9-2-2v-3c0-1.1,0.9-2,2-2h3c1.1,0,2,0.9,2,2V76.5z"/>
</g>
<g>
	<path class="st3" d="M182.5,76.5c0,1.1-0.9,2-2,2h-3c-1.1,0-2-0.9-2-2v-3c0-1.1,0.9-2,2-2h3c1.1,0,2,0.9,2,2V76.5z"/>
</g>
<g>
	<path class="st3" d="M195.5,76.5c0,1.1-0.9,2-2,2h-3c-1.1,0-2-0.9-2-2v-3c0-1.1,0.9-2,2-2h3c1.1,0,2,0.9,2,2V76.5z"/>
</g>
<g>
	<path class="st3" d="M156.5,24.5c0,1.1-0.9,2-2,2h-3c-1.1,0-2-0.9-2-2v-3c0-1.1,0.9-2,2-2h3c1.1,0,2,0.9,2,2V24.5z"/>
</g>
<g>
	<path class="st3" d="M169.5,24.5c0,1.1-0.9,2-2,2h-3c-1.1,0-2-0.9-2-2v-3c0-1.1,0.9-2,2-2h3c1.1,0,2,0.9,2,2V24.5z"/>
</g>
<g>
	<path class="st3" d="M182.5,24.5c0,1.1-0.9,2-2,2h-3c-1.1,0-2-0.9-2-2v-3c0-1.1,0.9-2,2-2h3c1.1,0,2,0.9,2,2V24.5z"/>
</g>
<g>
	<path class="st3" d="M195.5,24.5c0,1.1-0.9,2-2,2h-3c-1.1,0-2-0.9-2-2v-3c0-1.1,0.9-2,2-2h3c1.1,0,2,0.9,2,2V24.5z"/>
</g>
<g>
	<path class="st3" d="M208.5,24.5c0,1.1-0.9,2-2,2h-3c-1.1,0-2-0.9-2-2v-3c0-1.1,0.9-2,2-2h3c1.1,0,2,0.9,2,2V24.5z"/>
</g>
<g>
	<path class="st2" d="M16,116c0,1.1-0.9,2-2,2H6c-1.1,0-2-0.9-2-2V90c0-1.1,0.9-2,2-2h8c1.1,0,2,0.9,2,2V116z"/>
</g>
<g>
	<path class="st2" d="M29,116c0,1.1-0.9,2-2,2h-8c-1.1,0-2-0.9-2-2V90c0-1.1,0.9-2,2-2h8c1.1,0,2,0.9,2,2V116z"/>
</g>
<g>
	<path class="st2" d="M42,116c0,1.1-0.9,2-2,2h-8c-1.1,0-2-0.9-2-2V90c0-1.1,0.9-2,2-2h8c1.1,0,2,0.9,2,2V116z"/>
</g>
<g>
	<path class="st2" d="M55,116c0,1.1-0.9,2-2,2h-8c-1.1,0-2-0.9-2-2V90c0-1.1,0.9-2,2-2h8c1.1,0,2,0.9,2,2V116z"/>
</g>
<g>
	<path class="st2" d="M68,116c0,1.1-0.9,2-2,2h-8c-1.1,0-2-0.9-2-2V90c0-1.1,0.9-2,2-2h8c1.1,0,2,0.9,2,2V116z"/>
</g>
<g>
	<path class="st2" d="M81,116c0,1.1-0.9,2-2,2h-8c-1.1,0-2-0.9-2-2V90c0-1.1,0.9-2,2-2h8c1.1,0,2,0.9,2,2V116z"/>
</g>
<g>
	<path class="st2" d="M94,116c0,1.1-0.9,2-2,2h-8c-1.1,0-2-0.9-2-2V90c0-1.1,0.9-2,2-2h8c1.1,0,2,0.9,2,2V116z"/>
</g>
<g>
	<path class="st2" d="M107,116c0,1.1-0.9,2-2,2h-8c-1.1,0-2-0.9-2-2V90c0-1.1,0.9-2,2-2h8c1.1,0,2,0.9,2,2V116z"/>
</g>
<g>
	<path class="st2" d="M120,116c0,1.1-0.9,2-2,2h-8c-1.1,0-2-0.9-2-2V90c0-1.1,0.9-2,2-2h8c1.1,0,2,0.9,2,2V116z"/>
</g>
<g>
	<path class="st2" d="M133,116c0,1.1-0.9,2-2,2h-8c-1.1,0-2-0.9-2-2V90c0-1.1,0.9-2,2-2h8c1.1,0,2,0.9,2,2V116z"/>
</g>
<g>
	<path class="st2" d="M146,116c0,1.1-0.9,2-2,2h-8c-1.1,0-2-0.9-2-2V90c0-1.1,0.9-2,2-2h8c1.1,0,2,0.9,2,2V116z"/>
</g>
<g>
	<path class="st2" d="M159,116c0,1.1-0.9,2-2,2h-8c-1.1,0-2-0.9-2-2V90c0-1.1,0.9-2,2-2h8c1.1,0,2,0.9,2,2V116z"/>
</g>
<g>
	<path class="st2" d="M172,116c0,1.1-0.9,2-2,2h-8c-1.1,0-2-0.9-2-2V90c0-1.1,0.9-2,2-2h8c1.1,0,2,0.9,2,2V116z"/>
</g>
<g>
	<path class="st2" d="M185,116c0,1.1-0.9,2-2,2h-8c-1.1,0-2-0.9-2-2V90c0-1.1,0.9-2,2-2h8c1.1,0,2,0.9,2,2V116z"/>
</g>
<g>
	<path class="st2" d="M198,116c0,1.1-0.9,2-2,2h-8c-1.1,0-2-0.9-2-2V90c0-1.1,0.9-2,2-2h8c1.1,0,2,0.9,2,2V116z"/>
</g>
<g>
	<path class="st2" d="M211,116c0,1.1-0.9,2-2,2h-8c-1.1,0-2-0.9-2-2V90c0-1.1,0.9-2,2-2h8c1.1,0,2,0.9,2,2V116z"/>
</g>
<g class="st4">
	<path class="st5" d="M16,116c0,1.1-0.9,2-2,2H6c-1.1,0-2-0.9-2-2v-4c0-1.1,0.9-2,2-2h8c1.1,0,2,0.9,2,2V116z"/>
</g>
<g class="st4">
	<path class="st5" d="M107,116c0,1.1-0.9,2-2,2h-8c-1.1,0-2-0.9-2-2V99c0-1.1,0.9-2,2-2h8c1.1,0,2,0.9,2,2V116z"/>
</g>
<g>
	<path class="st5" d="M16,113c0,1.1-0.9,2-2,2H6c-1.1,0-2-0.9-2-2v-1c0-1.1,0.9-2,2-2h8c1.1,0,2,0.9,2,2V113z"/>
</g>
<g>
	<path class="st5" d="M29,107c0,1.1-0.9,2-2,2h-8c-1.1,0-2-0.9-2-2v-1c0-1.1,0.9-2,2-2h8c1.1,0,2,0.9,2,2V107z"/>
</g>
<g class="st4">
	<path class="st5" d="M29,116c0,1.1-0.9,2-2,2h-8c-1.1,0-2-0.9-2-2v-10c0-1.1,0.9-2,2-2h8c1.1,0,2,0.9,2,2V116z"/>
</g>
<g>
	<path class="st5" d="M107,98c0,1.1-0.9,2-2,2h-8c-1.1,0-2-0.9-2-2v-1c0-1.1,0.9-2,2-2h8c1.1,0,2,0.9,2,2V98z"/>
</g>
<g class="st4">
	<path class="st5" d="M42,116c0,1.1-0.9,2-2,2h-8c-1.1,0-2-0.9-2-2v-12c0-1.1,0.9-2,2-2h8c1.1,0,2,0.9,2,2V116z"/>
</g>
<g>
	<path class="st5" d="M42,105c0,1.1-0.9,2-2,2h-8c-1.1,0-2-0.9-2-2v-1c0-1.1,0.9-2,2-2h8c1.1,0,2,0.9,2,2V105z"/>
</g>
<g class="st4">
	<path class="st5" d="M55,116c0,1.1-0.9,2-2,2h-8c-1.1,0-2-0.9-2-2V95c0-1.1,0.9-2,2-2h8c1.1,0,2,0.9,2,2V116z"/>
</g>
<g>
	<path class="st5" d="M55,96c0,1.1-0.9,2-2,2h-8c-1.1,0-2-0.9-2-2v-1c0-1.1,0.9-2,2-2h8c1.1,0,2,0.9,2,2V96z"/>
</g>
<g class="st4">
	<path class="st5" d="M68,116.5c0,0.8-0.9,1.5-2,1.5h-8c-1.1,0-2-0.7-2-1.5s0.9-1.5,2-1.5h8C67.1,115,68,115.7,68,116.5z"/>
</g>
<g>
	<path class="st5" d="M68,116c0,1.1-0.9,2-2,2h-8c-1.1,0-2-0.9-2-2v-1c0-1.1,0.9-2,2-2h8c1.1,0,2,0.9,2,2V116z"/>
</g>
<g class="st4">
	<path class="st5" d="M81,116c0,1.1-0.9,2-2,2h-8c-1.1,0-2-0.9-2-2v-10c0-1.1,0.9-2,2-2h8c1.1,0,2,0.9,2,2V116z"/>
</g>
<g>
	<path class="st5" d="M81,107c0,1.1-0.9,2-2,2h-8c-1.1,0-2-0.9-2-2v-1c0-1.1,0.9-2,2-2h8c1.1,0,2,0.9,2,2V107z"/>
</g>
<g class="st4">
	<path class="st5" d="M94,116c0,1.1-0.9,2-2,2h-8c-1.1,0-2-0.9-2-2v-10c0-1.1,0.9-2,2-2h8c1.1,0,2,0.9,2,2V116z"/>
</g>
<g>
	<path class="st5" d="M94,107c0,1.1-0.9,2-2,2h-8c-1.1,0-2-0.9-2-2v-1c0-1.1,0.9-2,2-2h8c1.1,0,2,0.9,2,2V107z"/>
</g>
<g class="st4">
	<path class="st5" d="M211,116c0,1.1-0.9,2-2,2h-8c-1.1,0-2-0.9-2-2V93c0-1.1,0.9-2,2-2h8c1.1,0,2,0.9,2,2V116z"/>
</g>
<g>
	<path class="st5" d="M211,94c0,1.1-0.9,2-2,2h-8c-1.1,0-2-0.9-2-2v-1c0-1.1,0.9-2,2-2h8c1.1,0,2,0.9,2,2V94z"/>
</g>
<g class="st4">
	<path class="st5" d="M198,116c0,1.1-0.9,2-2,2h-8c-1.1,0-2-0.9-2-2V93c0-1.1,0.9-2,2-2h8c1.1,0,2,0.9,2,2V116z"/>
</g>
<g>
	<path class="st5" d="M198,94c0,1.1-0.9,2-2,2h-8c-1.1,0-2-0.9-2-2v-1c0-1.1,0.9-2,2-2h8c1.1,0,2,0.9,2,2V94z"/>
</g>
<g class="st4">
	<path class="st5" d="M185,116c0,1.1-0.9,2-2,2h-8c-1.1,0-2-0.9-2-2V97c0-1.1,0.9-2,2-2h8c1.1,0,2,0.9,2,2V116z"/>
</g>
<g>
	<path class="st5" d="M185,98c0,1.1-0.9,2-2,2h-8c-1.1,0-2-0.9-2-2v-1c0-1.1,0.9-2,2-2h8c1.1,0,2,0.9,2,2V98z"/>
</g>
<g class="st4">
	<path class="st5" d="M172,116c0,1.1-0.9,2-2,2h-8c-1.1,0-2-0.9-2-2V93c0-1.1,0.9-2,2-2h8c1.1,0,2,0.9,2,2V116z"/>
</g>
<g>
	<path class="st5" d="M172,94c0,1.1-0.9,2-2,2h-8c-1.1,0-2-0.9-2-2v-1c0-1.1,0.9-2,2-2h8c1.1,0,2,0.9,2,2V94z"/>
</g>
<g class="st4">
	<path class="st5" d="M146,116c0,1.1-0.9,2-2,2h-8c-1.1,0-2-0.9-2-2V93c0-1.1,0.9-2,2-2h8c1.1,0,2,0.9,2,2V116z"/>
</g>
<g>
	<path class="st5" d="M146,93c0,1.1-0.9,2-2,2h-8c-1.1,0-2-0.9-2-2v-1c0-1.1,0.9-2,2-2h8c1.1,0,2,0.9,2,2V93z"/>
</g>
<g class="st4">
	<path class="st5" d="M159,116c0,1.1-0.9,2-2,2h-8c-1.1,0-2-0.9-2-2v-10c0-1.1,0.9-2,2-2h8c1.1,0,2,0.9,2,2V116z"/>
</g>
<g>
	<path class="st5" d="M159,105c0,1.1-0.9,2-2,2h-8c-1.1,0-2-0.9-2-2v-1c0-1.1,0.9-2,2-2h8c1.1,0,2,0.9,2,2V105z"/>
</g>
<g class="st4">
	<path class="st5" d="M133,116c0,1.1-0.9,2-2,2h-8c-1.1,0-2-0.9-2-2v-14c0-1.1,0.9-2,2-2h8c1.1,0,2,0.9,2,2V116z"/>
</g>
<g>
	<path class="st5" d="M133,100c0,1.1-0.9,2-2,2h-8c-1.1,0-2-0.9-2-2v-1c0-1.1,0.9-2,2-2h8c1.1,0,2,0.9,2,2V100z"/>
</g>
<g class="st4">
	<path class="st5" d="M120,116c0,1.1-0.9,2-2,2h-8c-1.1,0-2-0.9-2-2v-3c0-1.1,0.9-2,2-2h8c1.1,0,2,0.9,2,2V116z"/>
</g>
<g>
	<path class="st5" d="M120,114c0,1.1-0.9,2-2,2h-8c-1.1,0-2-0.9-2-2v-1c0-1.1,0.9-2,2-2h8c1.1,0,2,0.9,2,2V114z"/>
</g>
</svg>
